<svg width="57" height="57" viewBox="0 0 57 57" fill="none" xmlns="http://www.w3.org/2000/svg">
<rect x="11.759" width="9.96378" height="9.96378" rx="3.59054" fill="white"/>
<rect x="23.5181" width="9.96378" height="9.96378" rx="3.59054" fill="white"/>
<rect x="35.2771" width="9.96378" height="9.96378" rx="3.59054" fill="white"/>
<rect x="11.759" y="11.7593" width="9.96378" height="9.96378" rx="3.59054" fill="white"/>
<rect x="23.5181" y="11.7593" width="9.96378" height="9.96378" rx="3.59054" fill="white"/>
<rect x="23.5181" y="35.2773" width="9.96378" height="9.96378" rx="3.59054" fill="white"/>
<rect x="35.2771" y="11.7593" width="9.96378" height="9.96378" rx="3.59054" fill="white"/>
<rect x="11.759" y="35.2773" width="9.96378" height="9.96378" rx="3.59054" fill="white"/>
<rect x="35.2771" y="35.2773" width="9.96378" height="9.96378" rx="3.59054" fill="white"/>
<rect x="11.759" y="47.0361" width="9.96378" height="9.96378" rx="3.59054" fill="white"/>
<rect x="23.5181" y="47.0361" width="9.96378" height="9.96378" rx="3.59054" fill="white"/>
<rect x="35.2771" y="47.0361" width="9.96378" height="9.96378" rx="3.59054" fill="white"/>
<rect y="45.2407" width="9.96378" height="9.96378" rx="3.59054" transform="rotate(-90 0 45.2407)" fill="white"/>
<rect y="33.4819" width="9.96378" height="9.96378" rx="3.59054" transform="rotate(-90 0 33.4819)" fill="white"/>
<rect y="21.7227" width="9.96378" height="9.96378" rx="3.59054" transform="rotate(-90 0 21.7227)" fill="white"/>
<rect x="47.0361" y="45.2407" width="9.96378" height="9.96378" rx="3.59054" transform="rotate(-90 47.0361 45.2407)" fill="white"/>
<rect x="47.0361" y="21.7227" width="9.96378" height="9.96378" rx="3.59054" transform="rotate(-90 47.0361 21.7227)" fill="white"/>
</svg>
