<svg xmlns="http://www.w3.org/2000/svg" version="1.1" xmlns:xlink="http://www.w3.org/1999/xlink" width="57" height="57"><svg width="57" height="57" viewBox="-3 -3 63 63" fill="none" xmlns="http://www.w3.org/2000/svg"><g id="SvgjsG1011" stroke-width="0">
    <rect id="SvgjsRect1010" x="-3" y="-3" width="63" height="63" rx="0" fill="#1c1c1c" strokewidth="0"></rect>
  </g>
<rect x="11.759" width="9.96378" height="9.96378" rx="3.59054" fill="white"></rect>
<rect x="23.5181" width="9.96378" height="9.96378" rx="3.59054" fill="white"></rect>
<rect x="35.2771" width="9.96378" height="9.96378" rx="3.59054" fill="white"></rect>
<rect x="11.759" y="11.7593" width="9.96378" height="9.96378" rx="3.59054" fill="white"></rect>
<rect x="23.5181" y="11.7593" width="9.96378" height="9.96378" rx="3.59054" fill="white"></rect>
<rect x="23.5181" y="35.2773" width="9.96378" height="9.96378" rx="3.59054" fill="white"></rect>
<rect x="35.2771" y="11.7593" width="9.96378" height="9.96378" rx="3.59054" fill="white"></rect>
<rect x="11.759" y="35.2773" width="9.96378" height="9.96378" rx="3.59054" fill="white"></rect>
<rect x="35.2771" y="35.2773" width="9.96378" height="9.96378" rx="3.59054" fill="white"></rect>
<rect x="11.759" y="47.0361" width="9.96378" height="9.96378" rx="3.59054" fill="white"></rect>
<rect x="23.5181" y="47.0361" width="9.96378" height="9.96378" rx="3.59054" fill="white"></rect>
<rect x="35.2771" y="47.0361" width="9.96378" height="9.96378" rx="3.59054" fill="white"></rect>
<rect y="45.2407" width="9.96378" height="9.96378" rx="3.59054" transform="rotate(-90 0 45.2407)" fill="white"></rect>
<rect y="33.4819" width="9.96378" height="9.96378" rx="3.59054" transform="rotate(-90 0 33.4819)" fill="white"></rect>
<rect y="21.7227" width="9.96378" height="9.96378" rx="3.59054" transform="rotate(-90 0 21.7227)" fill="white"></rect>
<rect x="47.0361" y="45.2407" width="9.96378" height="9.96378" rx="3.59054" transform="rotate(-90 47.0361 45.2407)" fill="white"></rect>
<rect x="47.0361" y="21.7227" width="9.96378" height="9.96378" rx="3.59054" transform="rotate(-90 47.0361 21.7227)" fill="white"></rect>
</svg><style>@media (prefers-color-scheme: light) { :root { filter: contrast(1) brightness(1); } }
@media (prefers-color-scheme: dark) { :root { filter: none; } }
</style></svg>